/* XPM */
static char *f8aa6fb740734320f2e887c1317f3a84XjLrHH2srTbHOVC2[] = {
/* columns rows colors chars-per-pixel */
"32 32 40 1 ",
"  c None",
". c #2E1E22",
"X c #760000",
"o c #5C2E00",
"O c #4D3B39",
"+ c #534721",
"@ c #444444",
"# c #565657",
"$ c #77584A",
"% c #705654",
"& c #6D6D6E",
"* c #767678",
"= c #AD0000",
"- c #FF2627",
"; c #964F00",
": c #8B5E4A",
"> c #9D704C",
", c #A77E5D",
"< c #8F7772",
"1 c #C79D00",
"2 c #E3B700",
"3 c #FFD600",
"4 c #FFFC00",
"5 c #D7906E",
"6 c #1A5586",
"7 c #286E9F",
"8 c #288DCB",
"9 c #858587",
"0 c #9F8781",
"q c #928A8C",
"w c #979799",
"e c #B89D92",
"r c #B7A099",
"t c #B7B7BB",
"y c #EEBE93",
"u c #FFE1AF",
"i c gray85",
"p c #D9D9DD",
"a c gray95",
"s c white",
/* pixels */
"                ++++            ",
"             OOOO   OOOO        ",
"        OOOOOO%<%OOO%<O         ",
"         O%<<rO%<<%<<OOOOOO     ",
"        OOO%%<r<%r<<%%r<%O      ",
"       O%<<<<<<<<<r<<r<%OOO     ",
"        OO%<<r<<<<<<<<<<<<%O    ",
"       O%<<<r<%<<<<r<<<r<%<%O   ",
"      O%<<%%<%<r<%rr<X<<r<OOOO  ",
"     O%<O=X<%=<r<%r<%=%<r%<O    ",
"      OOX-=%=-<<<=<<=-X<<O%%O   ",
"      O%X=XX=-%<%-<%--=<%+O%O   ",
"     O%%=-%%<%%%%u%uuuy%y+ O    ",
"     O%==-%<<%%%<uu+++uyy+      ",
"     OO=--<<<uy<<uui.puuy+      ",
"     OO=--<<<u>y<uua.quuy+      ",
"      O=--<<%y>u<uusoouu5+      ",
"      O=--%<%+5y<uuu;;uy>+      ",
"      X=-=%%%%55yuuuuuy5+       ",
"      X=-=O%O%>55yyy55>+        ",
"      XX-= O*O**+++++++         ",
"       XXX *ttpssssppt*         ",
"          *tttpttpsss21+        ",
"         **t**w*@8ps73+         ",
"        **tp*0ee+88873@         ",
"        **ps*:,:+::::9@         ",
"       **tps*:,,+8876#@         ",
"       **tps*$,,+&&&#1+         ",
"       **tps*+++34431+          ",
"       **tps* +00ee++           ",
"        **ts* +$:,:+            ",
"         ***  +$:,,+            "
};
