/* XPM */
static char *_db73ff9c6f8458ed4ae6132c596f512fMTdbc11fxF9vqbF[] = {
/* columns rows colors chars-per-pixel */
"32 32 41 1 ",
"  c None",
". c #2E1E22",
"X c #323234",
"o c #760000",
"O c #5C2E00",
"+ c #4D3B39",
"@ c #534721",
"# c #444444",
"$ c #565657",
"% c #77584A",
"& c #705654",
"* c #6D6D6E",
"= c #767678",
"- c #AD0000",
"; c #FF2627",
": c #964F00",
"> c #8B5E4A",
", c #9D704C",
"< c #A77E5D",
"1 c #8F7772",
"2 c #C79D00",
"3 c #E3B700",
"4 c #FFD600",
"5 c #FFFC00",
"6 c #D7906E",
"7 c #1A5586",
"8 c #286E9F",
"9 c #288DCB",
"0 c #858587",
"q c #9F8781",
"w c #928A8C",
"e c #979799",
"r c #B89D92",
"t c #B7A099",
"y c #B7B7BB",
"u c #EEBE93",
"i c #FFE1AF",
"p c gray85",
"a c #D9D9DD",
"s c gray95",
"d c white",
/* pixels */
"          ++++   ++++           ",
"           +1&+++t1&++++++      ",
"       +++++&11&t1&+11&++       ",
"        +&1&+&t11&11t11&+++     ",
"       +++&1111t111t1&+t11&+    ",
"      +&111tt111111111t1&++     ",
"     +&+&1111111t11t111&11&+    ",
"    +++&1t111t1tt1o&t111&11&+   ",
"      +1t111t1&t1&-o11ot1&+1&+  ",
"     +&11&1&11o11-;-&1o1t&&++   ",
"     +11&11o1&-1&;;;-1o&1&1+    ",
"    +1&&11&u&ii&iiiiu&u&1&&1+   ",
"    ++@&1&u@@@iiiii@@@u6&6+&+   ",
"    + @&1&up.aiiiiia.pu6&6@++   ",
"      +@&,us.wiiiiiw.su,&@+ +   ",
"      +&&,udOOiiiiiOOdu,&&+     ",
"      +&+@6u::iiiii::u6@+&+     ",
"       +==@6uiiiiiiiu6@==+      ",
"       #=yy@,6uuuuu6,@yy=#      ",
"      #eyyay@@@@@@@@@yayye#     ",
"      #=ae0adday=yadda0ea=#     ",
"      X#$$X7add323dda7X$$#X     ",
"      @q*#X78d99599d87X#*q@     ",
"     @><rXX%789949987%XXr<>@    ",
"     @<<>X#7%>>000>>%7#X><<@    ",
"     @>>@X#$899*5*998$#X@>>@    ",
"      @@d@2$$**5$5**$$2@d@@     ",
"      =dd=@2445###5442@=dd=     ",
"      =dd==@qrq@@@qrq@==dd=     ",
"       =d= @><%@ @%<>@ =d=      ",
"        =  @<<>@ @><<@  =       ",
"            @@@   @@@           "
};
