/* XPM */
static char *_21b74574b1b4e5d9823fe8b420efe7der8RWTKdta9p3uET[] = {
/* columns rows colors chars-per-pixel */
"32 32 40 1 ",
"  c None",
". c #2E1E22",
"X c #760000",
"o c #5C2E00",
"O c #4D3B39",
"+ c #534721",
"@ c #444444",
"# c #565657",
"$ c #77584A",
"% c #705654",
"& c #6D6D6E",
"* c #767678",
"= c #AD0000",
"- c #FF2627",
"; c #964F00",
": c #8B5E4A",
"> c #9D704C",
", c #A77E5D",
"< c #8F7772",
"1 c #C79D00",
"2 c #E3B700",
"3 c #FFD600",
"4 c #FFFC00",
"5 c #D7906E",
"6 c #1A5586",
"7 c #286E9F",
"8 c #288DCB",
"9 c #858587",
"0 c #9F8781",
"q c #928A8C",
"w c #979799",
"e c #B89D92",
"r c #B7A099",
"t c #B7B7BB",
"y c #EEBE93",
"u c #FFE1AF",
"i c gray85",
"p c #D9D9DD",
"a c gray95",
"s c white",
/* pixels */
"           +++   +++            ",
"         OOOO   OOOO            ",
"          O<%OOO%<%OOOOOO       ",
"      OOOOOO<<%<<%Or<<%O        ",
"       O%<r%%<<r%<r<%%OOO       ",
"      OOO%<r<<r<<<<<<<<<%O      ",
"     O%<<<<<<<<<<<<r<<%OO       ",
"    O%<%<r<<<r<<<<%<r<<<%O      ",
"   OOOO<r<<X<rr%<r<%<%%<<%O     ",
"     O<%r<%=%<r%<r<=%<X=O<%O    ",
"    O%%O<<X-=<<=<<<-=%=-XOO     ",
"    O%O+%<=--%<-%<%-=XX=X%O     ",
"     O +y%yuuu%u%%%%<%%-=%%O    ",
"       +yyu+++uu<%%%<<%-==%O    ",
"       +yuup.iuu<<yu<<<--=OO    ",
"       +yuuq.auu<y>u<<<--=OO    ",
"       +5uuoosuu<u>y%<<--=O     ",
"       +>yu;;uuu<y5+%<%--=O     ",
"        +5yuuuuuy55%%%%=-=X     ",
"         +>55yyy55>%O%O=-=X     ",
"          +++++++**O*O =-XX     ",
"          *tppssssptt* XXX      ",
"         +12ssspttpttt*         ",
"          +37sp8@*w**t*         ",
"          @37888+ee0*pt*        ",
"          @9::::+:,:*sp*        ",
"          @#6788+,,:*spt*       ",
"          +1#&&&+,,$*spt*       ",
"           +13443+++*spt*       ",
"            ++ee00+ *spt*       ",
"             +:,:$+ *st*        ",
"             +,,:$+  **         "
};
