/* XPM */
static char *_c8e08903f6f43e79ab6af69bfd8f6b7jlWQcc2T4Kk8MPiq[] = {
/* columns rows colors chars-per-pixel */
"32 32 5 1 ",
"  c None",
". c #72683E",
"X c #DFB500",
"o c #E8C831",
"O c #FFF83A",
/* pixels */
"                                ",
"                                ",
"                                ",
"                                ",
"                                ",
"                                ",
"                                ",
"             ......             ",
"           ..OOOOOO..           ",
"          .OOooooooOO.          ",
"         .OooooOOooooO.         ",
"        .OooOooOOooOooO.        ",
"        .OooOooOOooOooO.        ",
"       .OooOOooOOooOOooO.       ",
"       .OooOOooOOooOOooO.       ",
"       .oooOOOOOOOOOOooo.       ",
"       .oooXXXXOOXXXXooo.       ",
"       .oooooooOOooooooo.       ",
"       .oooooooOOooooooo.       ",
"        .XoooooOOoooooX.        ",
"        .XoooooOOoooooX.        ",
"         .XooooXXooooX.         ",
"          .XXoooooooX.          ",
"           ..XXXXXX..           ",
"             ......             ",
"                                ",
"                                ",
"                                ",
"                                ",
"                                ",
"                                ",
"                                "
};
