/* XPM */
static char *bedrock1670512350[] = {
/* columns rows colors chars-per-pixel */
"64 64 5 1 ",
"  c #222222",
". c gray20",
"X c gray34",
"o c gray39",
"O c #979797",
/* pixels */
"oooo................XXXXOOOOooooXXXXOOOOXXXX........XXXX....XXXX",
"oooo................XXXXOOOOooooXXXXOOOOXXXX........XXXX....XXXX",
"oooo................XXXXOOOOooooXXXXOOOOXXXX........XXXX....XXXX",
"oooo................XXXXOOOOooooXXXXOOOOXXXX........XXXX....XXXX",
"....ooooooooOOOOooooOOOOooooOOOO....OOOOOOOOoooo    ....XXXX....",
"....ooooooooOOOOooooOOOOooooOOOO....OOOOOOOOoooo    ....XXXX....",
"....ooooooooOOOOooooOOOOooooOOOO....OOOOOOOOoooo    ....XXXX....",
"....ooooooooOOOOooooOOOOooooOOOO....OOOOOOOOoooo    ....XXXX....",
"....    ........    ............OOOO....XXXXXXXXXXXXOOOOXXXXoooo",
"....    ........    ............OOOO....XXXXXXXXXXXXOOOOXXXXoooo",
"....    ........    ............OOOO....XXXXXXXXXXXXOOOOXXXXoooo",
"....    ........    ............OOOO....XXXXXXXXXXXXOOOOXXXXoooo",
"XXXXOOOOooooooooXXXX    XXXXOOOOXXXXXXXX....................XXXX",
"XXXXOOOOooooooooXXXX    XXXXOOOOXXXXXXXX....................XXXX",
"XXXXOOOOooooooooXXXX    XXXXOOOOXXXXXXXX....................XXXX",
"XXXXOOOOooooooooXXXX    XXXXOOOOXXXXXXXX....................XXXX",
"    ....OOOO................XXXX........ooooOOOOOOOOoooooooo....",
"    ....OOOO................XXXX........ooooOOOOOOOOoooooooo....",
"    ....OOOO................XXXX........ooooOOOOOOOOoooooooo....",
"    ....OOOO................XXXX........ooooOOOOOOOOoooooooo....",
"....XXXXXXXXXXXX....XXXXXXXX........    XXXXXXXX........    ....",
"....XXXXXXXXXXXX....XXXXXXXX........    XXXXXXXX........    ....",
"....XXXXXXXXXXXX....XXXXXXXX........    XXXXXXXX........    ....",
"....XXXXXXXXXXXX....XXXXXXXX........    XXXXXXXX........    ....",
"OOOOOOOOooooXXXXooooOOOOOOOOooooXXXXooooOOOOOOOOooooOOOO....    ",
"OOOOOOOOooooXXXXooooOOOOOOOOooooXXXXooooOOOOOOOOooooOOOO....    ",
"OOOOOOOOooooXXXXooooOOOOOOOOooooXXXXooooOOOOOOOOooooOOOO....    ",
"OOOOOOOOooooXXXXooooOOOOOOOOooooXXXXooooOOOOOOOOooooOOOO....    ",
"XXXXXXXXXXXX....XXXXXXXXXXXX........    ........XXXX....ooooXXXX",
"XXXXXXXXXXXX....XXXXXXXXXXXX........    ........XXXX....ooooXXXX",
"XXXXXXXXXXXX....XXXXXXXXXXXX........    ........XXXX....ooooXXXX",
"XXXXXXXXXXXX....XXXXXXXXXXXX........    ........XXXX....ooooXXXX",
"ooooOOOOOOOOXXXX........XXXXXXXXooooOOOOOOOOooooOOOOOOOOOOOOOOOO",
"ooooOOOOOOOOXXXX........XXXXXXXXooooOOOOOOOOooooOOOOOOOOOOOOOOOO",
"ooooOOOOOOOOXXXX........XXXXXXXXooooOOOOOOOOooooOOOOOOOOOOOOOOOO",
"ooooOOOOOOOOXXXX........XXXXXXXXooooOOOOOOOOooooOOOOOOOOOOOOOOOO",
"XXXX........    ....XXXX....XXXX....ooooXXXX............OOOOoooo",
"XXXX........    ....XXXX....XXXX....ooooXXXX............OOOOoooo",
"XXXX........    ....XXXX....XXXX....ooooXXXX............OOOOoooo",
"XXXX........    ....XXXX....XXXX....ooooXXXX............OOOOoooo",
"ooooooooOOOO....ooooOOOOOOOO....    ....OOOOOOOOOOOOoooo........",
"ooooooooOOOO....ooooOOOOOOOO....    ....OOOOOOOOOOOOoooo........",
"ooooooooOOOO....ooooOOOOOOOO....    ....OOOOOOOOOOOOoooo........",
"ooooooooOOOO....ooooOOOOOOOO....    ....OOOOOOOOOOOOoooo........",
"    XXXXXXXXXXXX........XXXXooooOOOOOOOOXXXXooooooooOOOOOOOO    ",
"    XXXXXXXXXXXX........XXXXooooOOOOOOOOXXXXooooooooOOOOOOOO    ",
"    XXXXXXXXXXXX........XXXXooooOOOOOOOOXXXXooooooooOOOOOOOO    ",
"    XXXXXXXXXXXX........XXXXooooOOOOOOOOXXXXooooooooOOOOOOOO    ",
"XXXX............ooooXXXX........ooooOOOO....................XXXX",
"XXXX............ooooXXXX........ooooOOOO....................XXXX",
"XXXX............ooooXXXX........ooooOOOO....................XXXX",
"XXXX............ooooXXXX........ooooOOOO....................XXXX",
"ooooOOOOooooOOOOXXXX    XXXX............    ....XXXXooooOOOOOOOO",
"ooooOOOOooooOOOOXXXX    XXXX............    ....XXXXooooOOOOOOOO",
"ooooOOOOooooOOOOXXXX    XXXX............    ....XXXXooooOOOOOOOO",
"ooooOOOOooooOOOOXXXX    XXXX............    ....XXXXooooOOOOOOOO",
"ooooooooXXXX........XXXX........XXXXooooOOOOOOOOXXXX........XXXX",
"ooooooooXXXX........XXXX........XXXXooooOOOOOOOOXXXX........XXXX",
"ooooooooXXXX........XXXX........XXXXooooOOOOOOOOXXXX........XXXX",
"ooooooooXXXX........XXXX........XXXXooooOOOOOOOOXXXX........XXXX",
"....    ........    OOOOOOOOoooo....XXXXoooo    ........XXXXoooo",
"....    ........    OOOOOOOOoooo....XXXXoooo    ........XXXXoooo",
"....    ........    OOOOOOOOoooo....XXXXoooo    ........XXXXoooo",
"....    ........    OOOOOOOOoooo....XXXXoooo    ........XXXXoooo"
};
