/* XPM */
static char *bricks1670510337[] = {
/* columns rows colors chars-per-pixel */
"64 64 9 1 ",
"  c #733F31",
". c #7C4536",
"X c #8F503F",
"o c #9B5643",
"O c #B1624D",
"+ c #8B6E67",
"@ c #C66851",
"# c #A2867D",
"$ c #A9948D",
/* pixels */
"OOOOOOOOoooo++++@@@@@@@@@@@@OOOOOOOOOOOOoooo####@@@@OOOOOOOOOOOO",
"OOOOOOOOoooo++++@@@@@@@@@@@@OOOOOOOOOOOOoooo####@@@@OOOOOOOOOOOO",
"OOOOOOOOoooo++++@@@@@@@@@@@@OOOOOOOOOOOOoooo####@@@@OOOOOOOOOOOO",
"OOOOOOOOoooo++++@@@@@@@@@@@@OOOOOOOOOOOOoooo####@@@@OOOOOOOOOOOO",
"ooooooooXXXX####....XXXXooooooooooooooooXXXX####....oooooooooooo",
"ooooooooXXXX####....XXXXooooooooooooooooXXXX####....oooooooooooo",
"ooooooooXXXX####....XXXXooooooooooooooooXXXX####....oooooooooooo",
"ooooooooXXXX####....XXXXooooooooooooooooXXXX####....oooooooooooo",
"....        $$$$        XXXXXXXX....        ####    XXXX........",
"....        $$$$        XXXXXXXX....        ####    XXXX........",
"....        $$$$        XXXXXXXX....        ####    XXXX........",
"....        $$$$        XXXXXXXX....        ####    XXXX........",
"++++++++####$$$$####++++++++++++++++########$$$$####++++++++++++",
"++++++++####$$$$####++++++++++++++++########$$$$####++++++++++++",
"++++++++####$$$$####++++++++++++++++########$$$$####++++++++++++",
"++++++++####$$$$####++++++++++++++++########$$$$####++++++++++++",
"@@@@@@@@OOOOOOOOooooOOOOoooo####@@@@OOOOOOOOOOOOooooOOOOoooo++++",
"@@@@@@@@OOOOOOOOooooOOOOoooo####@@@@OOOOOOOOOOOOooooOOOOoooo++++",
"@@@@@@@@OOOOOOOOooooOOOOoooo####@@@@OOOOOOOOOOOOooooOOOOoooo++++",
"@@@@@@@@OOOOOOOOooooOOOOoooo####@@@@OOOOOOOOOOOOooooOOOOoooo++++",
"....ooooooooooooooooXXXX....####....XXXXXXXXXXXXXXXXXXXX....####",
"....ooooooooooooooooXXXX....####....XXXXXXXXXXXXXXXXXXXX....####",
"....ooooooooooooooooXXXX....####....XXXXXXXXXXXXXXXXXXXX....####",
"....ooooooooooooooooXXXX....####....XXXXXXXXXXXXXXXXXXXX....####",
"....XXXXoooo............    $$$$        ....XXXXXXXX....    ####",
"....XXXXoooo............    $$$$        ....XXXXXXXX....    ####",
"....XXXXoooo............    $$$$        ....XXXXXXXX....    ####",
"....XXXXoooo............    $$$$        ....XXXXXXXX....    ####",
"####++++++++++++++++########$$$$########++++++++++++++++####$$$$",
"####++++++++++++++++########$$$$########++++++++++++++++####$$$$",
"####++++++++++++++++########$$$$########++++++++++++++++####$$$$",
"####++++++++++++++++########$$$$########++++++++++++++++####$$$$",
"OOOOOOOOoooo####@@@@@@@@@@@@OOOOooooOOOOoooo####@@@@@@@@OOOOOOOO",
"OOOOOOOOoooo####@@@@@@@@@@@@OOOOooooOOOOoooo####@@@@@@@@OOOOOOOO",
"OOOOOOOOoooo####@@@@@@@@@@@@OOOOooooOOOOoooo####@@@@@@@@OOOOOOOO",
"OOOOOOOOoooo####@@@@@@@@@@@@OOOOooooOOOOoooo####@@@@@@@@OOOOOOOO",
"ooooooooXXXX####XXXXoooooooooooooooooooo....####XXXXoooooooooooo",
"ooooooooXXXX####XXXXoooooooooooooooooooo....####XXXXoooooooooooo",
"ooooooooXXXX####XXXXoooooooooooooooooooo....####XXXXoooooooooooo",
"ooooooooXXXX####XXXXoooooooooooooooooooo....####XXXXoooooooooooo",
"........    ####........XXXXXXXX........    $$$$....XXXXXXXXXXXX",
"........    ####........XXXXXXXX........    $$$$....XXXXXXXXXXXX",
"........    ####........XXXXXXXX........    $$$$....XXXXXXXXXXXX",
"........    ####........XXXXXXXX........    $$$$....XXXXXXXXXXXX",
"++++########$$$$####++++++++++++++++++++####$$$$####++++++++++++",
"++++########$$$$####++++++++++++++++++++####$$$$####++++++++++++",
"++++########$$$$####++++++++++++++++++++####$$$$####++++++++++++",
"++++########$$$$####++++++++++++++++++++####$$$$####++++++++++++",
"ooooOOOOOOOOOOOOooooOOOOoooo++++@@@@OOOOOOOOOOOOooooOOOOoooo####",
"ooooOOOOOOOOOOOOooooOOOOoooo++++@@@@OOOOOOOOOOOOooooOOOOoooo####",
"ooooOOOOOOOOOOOOooooOOOOoooo++++@@@@OOOOOOOOOOOOooooOOOOoooo####",
"ooooOOOOOOOOOOOOooooOOOOoooo++++@@@@OOOOOOOOOOOOooooOOOOoooo####",
"....ooooooooooooooooooooXXXX####XXXXoooooooooooooooooooo....####",
"....ooooooooooooooooooooXXXX####XXXXoooooooooooooooooooo....####",
"....ooooooooooooooooooooXXXX####XXXXoooooooooooooooooooo....####",
"....ooooooooooooooooooooXXXX####XXXXoooooooooooooooooooo....####",
"    ....................    $$$$    ....................    $$$$",
"    ....................    $$$$    ....................    $$$$",
"    ....................    $$$$    ....................    $$$$",
"    ....................    $$$$    ....................    $$$$",
"####++++++++++++++++++++####$$$$########++++++++++++####$$$$$$$$",
"####++++++++++++++++++++####$$$$########++++++++++++####$$$$$$$$",
"####++++++++++++++++++++####$$$$########++++++++++++####$$$$$$$$",
"####++++++++++++++++++++####$$$$########++++++++++++####$$$$$$$$"
};
