/* XPM */
static char *cobblestone1670510337[] = {
/* columns rows colors chars-per-pixel */
"64 64 6 1 ",
"  c gray32",
". c gray38",
"X c #6E6D6D",
"o c #888788",
"O c gray65",
"+ c gray71",
/* pixels */
"XXXX....OOOOOOOO    ........OOOO++++OOOOoooo....oooo++++OOOOoooo",
"XXXX....OOOOOOOO    ........OOOO++++OOOOoooo....oooo++++OOOOoooo",
"XXXX....OOOOOOOO    ........OOOO++++OOOOoooo....oooo++++OOOOoooo",
"XXXX....OOOOOOOO    ........OOOO++++OOOOoooo....oooo++++OOOOoooo",
"....OOOO++++oooooooo    ++++++++OOOOoooooooo    ....ooooXXXXoooo",
"....OOOO++++oooooooo    ++++++++OOOOoooooooo    ....ooooXXXXoooo",
"....OOOO++++oooooooo    ++++++++OOOOoooooooo    ....ooooXXXXoooo",
"....OOOO++++oooooooo    ++++++++OOOOoooooooo    ....ooooXXXXoooo",
"....OOOOooooOOOOXXXX....OOOOooooooooOOOOXXXX....    ....ooooXXXX",
"....OOOOooooOOOOXXXX....OOOOooooooooOOOOXXXX....    ....ooooXXXX",
"....OOOOooooOOOOXXXX....OOOOooooooooOOOOXXXX....    ....ooooXXXX",
"....OOOOooooOOOOXXXX....OOOOooooooooOOOOXXXX....    ....ooooXXXX",
"........ooooXXXX........ooooXXXXooooXXXX....ooooOOOOoooo....    ",
"........ooooXXXX........ooooXXXXooooXXXX....ooooOOOOoooo....    ",
"........ooooXXXX........ooooXXXXooooXXXX....ooooOOOOoooo....    ",
"........ooooXXXX........ooooXXXXooooXXXX....ooooOOOOoooo....    ",
"    XXXX....oooo++++OOOO....oooo........++++OOOOOOOOOOOOoooo....",
"    XXXX....oooo++++OOOO....oooo........++++OOOOOOOOOOOOoooo....",
"    XXXX....oooo++++OOOO....oooo........++++OOOOOOOOOOOOoooo....",
"    XXXX....oooo++++OOOO....oooo........++++OOOOOOOOOOOOoooo....",
"++++XXXXOOOO++++ooooooooXXXX....    oooooooo++++OOOOooooXXXXoooo",
"++++XXXXOOOO++++ooooooooXXXX....    oooooooo++++OOOOooooXXXXoooo",
"++++XXXXOOOO++++ooooooooXXXX....    oooooooo++++OOOOooooXXXXoooo",
"++++XXXXOOOO++++ooooooooXXXX....    oooooooo++++OOOOooooXXXXoooo",
"OOOOoooo....ooooOOOOooooooooXXXX........XXXXOOOOooooXXXX....++++",
"OOOOoooo....ooooOOOOooooooooXXXX........XXXXOOOOooooXXXX....++++",
"OOOOoooo....ooooOOOOooooooooXXXX........XXXXOOOOooooXXXX....++++",
"OOOOoooo....ooooOOOOooooooooXXXX........XXXXOOOOooooXXXX....++++",
"ooooooooXXXXXXXXooooooooXXXX....oooo++++OOOO....XXXXoooo....oooo",
"ooooooooXXXXXXXXooooooooXXXX....oooo++++OOOO....XXXXoooo....oooo",
"ooooooooXXXXXXXXooooooooXXXX....oooo++++OOOO....XXXXoooo....oooo",
"ooooooooXXXXXXXXooooooooXXXX....oooo++++OOOO....XXXXoooo....oooo",
"XXXX....++++OOOOXXXXXXXX....oooo++++oooooooooooo........    XXXX",
"XXXX....++++OOOOXXXXXXXX....oooo++++oooooooooooo........    XXXX",
"XXXX....++++OOOOXXXXXXXX....oooo++++oooooooooooo........    XXXX",
"XXXX....++++OOOOXXXXXXXX....oooo++++oooooooooooo........    XXXX",
"....++++OOOOooooXXXXooooXXXXXXXXoooooooo....XXXX....ooooOOOO....",
"....++++OOOOooooXXXXooooXXXXXXXXoooooooo....XXXX....ooooOOOO....",
"....++++OOOOooooXXXXooooXXXXXXXXoooooooo....XXXX....ooooOOOO....",
"....++++OOOOooooXXXXooooXXXXXXXXoooooooo....XXXX....ooooOOOO....",
"ooooXXXXooooXXXXoooo........    ....XXXXXXXX....    OOOOOOOO++++",
"ooooXXXXooooXXXXoooo........    ....XXXXXXXX....    OOOOOOOO++++",
"ooooXXXXooooXXXXoooo........    ....XXXXXXXX....    OOOOOOOO++++",
"ooooXXXXooooXXXXoooo........    ....XXXXXXXX....    OOOOOOOO++++",
"ooooXXXXXXXX........XXXXoooo++++OOOO........    oooo++++++++oooo",
"ooooXXXXXXXX........XXXXoooo++++OOOO........    oooo++++++++oooo",
"ooooXXXXXXXX........XXXXoooo++++OOOO........    oooo++++++++oooo",
"ooooXXXXXXXX........XXXXoooo++++OOOO........    oooo++++++++oooo",
"XXXXoooo++++OOOOXXXX....++++OOOOooooOOOOXXXX....ooooooooXXXXoooo",
"XXXXoooo++++OOOOXXXX....++++OOOOooooOOOOXXXX....ooooooooXXXXoooo",
"XXXXoooo++++OOOOXXXX....++++OOOOooooOOOOXXXX....ooooooooXXXXoooo",
"XXXXoooo++++OOOOXXXX....++++OOOOooooOOOOXXXX....ooooooooXXXXoooo",
"....++++OOOOoooooooo....OOOOooooXXXXooooooooXXXX........ooooXXXX",
"....++++OOOOoooooooo....OOOOooooXXXXooooooooXXXX........ooooXXXX",
"....++++OOOOoooooooo....OOOOooooXXXXooooooooXXXX........ooooXXXX",
"....++++OOOOoooooooo....OOOOooooXXXXooooooooXXXX........ooooXXXX",
"OOOOOOOOooooXXXXooooXXXX....XXXXooooooooXXXX....OOOOoooo........",
"OOOOOOOOooooXXXXooooXXXX....XXXXooooooooXXXX....OOOOoooo........",
"OOOOOOOOooooXXXXooooXXXX....XXXXooooooooXXXX....OOOOoooo........",
"OOOOOOOOooooXXXXooooXXXX....XXXXooooooooXXXX....OOOOoooo........",
"....oooo........XXXXooooXXXX....XXXX........oooo++++OOOOooooXXXX",
"....oooo........XXXXooooXXXX....XXXX........oooo++++OOOOooooXXXX",
"....oooo........XXXXooooXXXX....XXXX........oooo++++OOOOooooXXXX",
"....oooo........XXXXooooXXXX....XXXX........oooo++++OOOOooooXXXX"
};
