/* XPM */
static char *dirt1670510338[] = {
/* columns rows colors chars-per-pixel */
"64 64 7 1 ",
"  c #593D29",
". c #79553A",
"X c #745844",
"o c #6C6C6C",
"O c #966C4A",
"+ c #B9855C",
"@ c gray53",
/* pixels */
"++++OOOOOOOO........++++OOOOOOOO........    ........++++....++++",
"++++OOOOOOOO........++++OOOOOOOO........    ........++++....++++",
"++++OOOOOOOO........++++OOOOOOOO........    ........++++....++++",
"++++OOOOOOOO........++++OOOOOOOO........    ........++++....++++",
"....OOOO    ........OOOO@@@@    ....++++OOOO....++++OOOO        ",
"....OOOO    ........OOOO@@@@    ....++++OOOO....++++OOOO        ",
"....OOOO    ........OOOO@@@@    ....++++OOOO....++++OOOO        ",
"....OOOO    ........OOOO@@@@    ....++++OOOO....++++OOOO        ",
"++++........    ++++............++++............        ++++....",
"++++........    ++++............++++............        ++++....",
"++++........    ++++............++++............        ++++....",
"++++........    ++++............++++............        ++++....",
"OOOOoooo++++....OOOO    ....++++OOOOOOOO....OOOO....++++OOOO....",
"OOOOoooo++++....OOOO    ....++++OOOOOOOO....OOOO....++++OOOO....",
"OOOOoooo++++....OOOO    ....++++OOOOOOOO....OOOO....++++OOOO....",
"OOOOoooo++++....OOOO    ....++++OOOOOOOO....OOOO....++++OOOO....",
"OOOO....OOOO++++    OOOO........OOOO    ....oooo....OOOO    ....",
"OOOO....OOOO++++    OOOO........OOOO    ....oooo....OOOO    ....",
"OOOO....OOOO++++    OOOO........OOOO    ....oooo....OOOO    ....",
"OOOO....OOOO++++    OOOO........OOOO    ....oooo....OOOO    ....",
"....    OOOOOOOO....OOOO            ........    ............++++",
"....    OOOOOOOO....OOOO            ........    ............++++",
"....    OOOOOOOO....OOOO            ........    ............++++",
"....    OOOOOOOO....OOOO            ........    ............++++",
"++++............@@@@........++++++++....++++++++....OOOO....OOOO",
"++++............@@@@........++++++++....++++++++....OOOO....OOOO",
"++++............@@@@........++++++++....++++++++....OOOO....OOOO",
"++++............@@@@........++++++++....++++++++....OOOO....OOOO",
"........++++++++OOOOOOOO........OOOO    OOOOOOOO........OOOOOOOO",
"........++++++++OOOOOOOO........OOOO    OOOOOOOO........OOOOOOOO",
"........++++++++OOOOOOOO........OOOO    OOOOOOOO........OOOOOOOO",
"........++++++++OOOOOOOO........OOOO    OOOOOOOO........OOOOOOOO",
"OOOO........OOOO....OOOO....    ....OOOOOOOO............    ....",
"OOOO........OOOO....OOOO....    ....OOOOOOOO............    ....",
"OOOO........OOOO....OOOO....    ....OOOOOOOO............    ....",
"OOOO........OOOO....OOOO....    ....OOOOOOOO............    ....",
"....OOOO    ........        ....................++++++++....OOOO",
"....OOOO    ........        ....................++++++++....OOOO",
"....OOOO    ........        ....................++++++++....OOOO",
"....OOOO    ........        ....................++++++++....OOOO",
"....OOOO....++++++++....++++OOOO    ++++++++    OOOOOOOO@@@@....",
"....OOOO....++++++++....++++OOOO    ++++++++    OOOOOOOO@@@@....",
"....OOOO....++++++++....++++OOOO    ++++++++    OOOOOOOO@@@@....",
"....OOOO....++++++++....++++OOOO    ++++++++    OOOOOOOO@@@@....",
"OOOO........OOOOOOOO++++....OOOOooooOOOOOOOO....    OOOO....    ",
"OOOO........OOOOOOOO++++....OOOOooooOOOOOOOO....    OOOO....    ",
"OOOO........OOOOOOOO++++....OOOOooooOOOOOOOO....    OOOO....    ",
"OOOO........OOOOOOOO++++....OOOOooooOOOOOOOO....    OOOO....    ",
"....    OOOO....OOOOOOOO++++............................++++++++",
"....    OOOO....OOOOOOOO++++............................++++++++",
"....    OOOO....OOOOOOOO++++............................++++++++",
"....    OOOO....OOOOOOOO++++............................++++++++",
"....OOOO........XXXX....OOOOOOOO....    ++++    ....++++OOOOOOOO",
"....OOOO........XXXX....OOOOOOOO....    ++++    ....++++OOOOOOOO",
"....OOOO........XXXX....OOOOOOOO....    ++++    ....++++OOOOOOOO",
"....OOOO........XXXX....OOOOOOOO....    ++++    ....++++OOOOOOOO",
"OOOO....    ++++....    ....    ++++++++....OOOO........OOOOOOOO",
"OOOO....    ++++....    ....    ++++++++....OOOO........OOOOOOOO",
"OOOO....    ++++....    ....    ++++++++....OOOO........OOOOOOOO",
"OOOO....    ++++....    ....    ++++++++....OOOO........OOOOOOOO",
"OOOO....++++OOOOOOOO....@@@@....OOOOOOOO........OOOOOOOO....    ",
"OOOO....++++OOOOOOOO....@@@@....OOOOOOOO........OOOOOOOO....    ",
"OOOO....++++OOOOOOOO....@@@@....OOOOOOOO........OOOOOOOO....    ",
"OOOO....++++OOOOOOOO....@@@@....OOOOOOOO........OOOOOOOO....    "
};
