/* XPM */
static char *furnace_front1670510338[] = {
/* columns rows colors chars-per-pixel */
"64 64 13 1 ",
"  c #111111",
". c gray13",
"X c #3C3B3B",
"o c #504E4E",
"O c #5D5B5B",
"+ c #686868",
"@ c #777777",
"# c gray52",
"$ c gray57",
"% c #9D9D9D",
"& c gray66",
"* c gray69",
"= c #C5C5C5",
/* pixels */
"ooooooooooooooooXXXXooooooooooooXXXXXXXXXXXXooooXXXXXXXXoooooooo",
"ooooooooooooooooXXXXooooooooooooXXXXXXXXXXXXooooXXXXXXXXoooooooo",
"ooooooooooooooooXXXXooooooooooooXXXXXXXXXXXXooooXXXXXXXXoooooooo",
"ooooooooooooooooXXXXooooooooooooXXXXXXXXXXXXooooXXXXXXXXoooooooo",
"oooo++++++++@@@@@@@@++++@@@@++++@@@@@@@@++++@@@@++++@@@@OOOOoooo",
"oooo++++++++@@@@@@@@++++@@@@++++@@@@@@@@++++@@@@++++@@@@OOOOoooo",
"oooo++++++++@@@@@@@@++++@@@@++++@@@@@@@@++++@@@@++++@@@@OOOOoooo",
"oooo++++++++@@@@@@@@++++@@@@++++@@@@@@@@++++@@@@++++@@@@OOOOoooo",
"XXXXOOOO@@@@$$$$@@@@####++++@@@@####$$$$####$$$$@@@@++++@@@@oooo",
"XXXXOOOO@@@@$$$$@@@@####++++@@@@####$$$$####$$$$@@@@++++@@@@oooo",
"XXXXOOOO@@@@$$$$@@@@####++++@@@@####$$$$####$$$$@@@@++++@@@@oooo",
"XXXXOOOO@@@@$$$$@@@@####++++@@@@####$$$$####$$$$@@@@++++@@@@oooo",
"oooo++++########XXXX........................XXXX####@@@@++++oooo",
"oooo++++########XXXX........................XXXX####@@@@++++oooo",
"oooo++++########XXXX........................XXXX####@@@@++++oooo",
"oooo++++########XXXX........................XXXX####@@@@++++oooo",
"oooo@@@@####XXXX                                XXXX@@@@OOOOXXXX",
"oooo@@@@####XXXX                                XXXX@@@@OOOOXXXX",
"oooo@@@@####XXXX                                XXXX@@@@OOOOXXXX",
"oooo@@@@####XXXX                                XXXX@@@@OOOOXXXX",
"XXXX@@@@++++            ................            $$$$OOOOXXXX",
"XXXX@@@@++++            ................            $$$$OOOOXXXX",
"XXXX@@@@++++            ................            $$$$OOOOXXXX",
"XXXX@@@@++++            ................            $$$$OOOOXXXX",
"oooo@@@@++++        XXXXXXXXXXXXXXXXXXXXXXXX        $$$$OOOOoooo",
"oooo@@@@++++        XXXXXXXXXXXXXXXXXXXXXXXX        $$$$OOOOoooo",
"oooo@@@@++++        XXXXXXXXXXXXXXXXXXXXXXXX        $$$$OOOOoooo",
"oooo@@@@++++        XXXXXXXXXXXXXXXXXXXXXXXX        $$$$OOOOoooo",
"XXXX@@@@$$$$&&&&&&&&************************&&&&&&&&$$$$@@@@XXXX",
"XXXX@@@@$$$$&&&&&&&&************************&&&&&&&&$$$$@@@@XXXX",
"XXXX@@@@$$$$&&&&&&&&************************&&&&&&&&$$$$@@@@XXXX",
"XXXX@@@@$$$$&&&&&&&&************************&&&&&&&&$$$$@@@@XXXX",
"XXXX@@@@####@@@@++++OOOO@@@@++++OOOO++++@@@@++++@@@@++++++++oooo",
"XXXX@@@@####@@@@++++OOOO@@@@++++OOOO++++@@@@++++@@@@++++++++oooo",
"XXXX@@@@####@@@@++++OOOO@@@@++++OOOO++++@@@@++++@@@@++++++++oooo",
"XXXX@@@@####@@@@++++OOOO@@@@++++OOOO++++@@@@++++@@@@++++++++oooo",
"oooo====****============================================&&&&oooo",
"oooo====****============================================&&&&oooo",
"oooo====****============================================&&&&oooo",
"oooo====****============================================&&&&oooo",
"oooo&&&&&&&&&&&&****&&&&################&&&&****&&&&****%%%%XXXX",
"oooo&&&&&&&&&&&&****&&&&################&&&&****&&&&****%%%%XXXX",
"oooo&&&&&&&&&&&&****&&&&################&&&&****&&&&****%%%%XXXX",
"oooo&&&&&&&&&&&&****&&&&################&&&&****&&&&****%%%%XXXX",
"oooo%%%%&&&&$$$$OOOO....                ....OOOO$$$$&&&&%%%%oooo",
"oooo%%%%&&&&$$$$OOOO....                ....OOOO$$$$&&&&%%%%oooo",
"oooo%%%%&&&&$$$$OOOO....                ....OOOO$$$$&&&&%%%%oooo",
"oooo%%%%&&&&$$$$OOOO....                ....OOOO$$$$&&&&%%%%oooo",
"oooo$$$$$$$$oooo                                oooo@@@@%%%%oooo",
"oooo$$$$$$$$oooo                                oooo@@@@%%%%oooo",
"oooo$$$$$$$$oooo                                oooo@@@@%%%%oooo",
"oooo$$$$$$$$oooo                                oooo@@@@%%%%oooo",
"oooo@@@@$$$$            ................            %%%%$$$$oooo",
"oooo@@@@$$$$            ................            %%%%$$$$oooo",
"oooo@@@@$$$$            ................            %%%%$$$$oooo",
"oooo@@@@$$$$            ................            %%%%$$$$oooo",
"XXXX$$$$@@@@    ................................    @@@@%%%%XXXX",
"XXXX$$$$@@@@    ................................    @@@@%%%%XXXX",
"XXXX$$$$@@@@    ................................    @@@@%%%%XXXX",
"XXXX$$$$@@@@    ................................    @@@@%%%%XXXX",
"XXXX++++XXXXXXXXXXXXooooooooooooooooooooooooXXXXXXXXXXXX++++XXXX",
"XXXX++++XXXXXXXXXXXXooooooooooooooooooooooooXXXXXXXXXXXX++++XXXX",
"XXXX++++XXXXXXXXXXXXooooooooooooooooooooooooXXXXXXXXXXXX++++XXXX",
"XXXX++++XXXXXXXXXXXXooooooooooooooooooooooooXXXXXXXXXXXX++++XXXX"
};
