/* XPM */
static char *grass_block_side1670510338[] = {
/* columns rows colors chars-per-pixel */
"64 64 40 1 ",
"  c #593D29",
". c #79553A",
"X c #745844",
"o c #6C6C6C",
"O c #966C4A",
"+ c #509026",
"@ c #57972D",
"# c #5F9F35",
"$ c #60A036",
"% c #61A137",
"& c #62A238",
"* c #64A43A",
"= c #66A63C",
"- c #67A73D",
"; c #68A83E",
": c #69A93F",
"> c #6AAA40",
", c #6BAB41",
"< c #6CAC42",
"1 c #6DAD43",
"2 c #6FAF45",
"3 c #70B046",
"4 c #71B147",
"5 c #73B349",
"6 c #74B44A",
"7 c #75B54B",
"8 c #76B64C",
"9 c #7EBE54",
"0 c #7FBF55",
"q c #B9855C",
"w c #81B051",
"e c #83B253",
"r c #8AB95A",
"t c #8DBC5D",
"y c #90BF60",
"u c #92C162",
"i c #93C263",
"p c #97C667",
"a c #9CCB6C",
"s c gray53",
/* pixels */
"666688885555========3322####<<<<99998888,:,::---::::%%%%++++1111",
"666688885555========2222####<<<<99998888:,:,----::::%%%%++++1111",
"666688885555========2222####<<<<99998888,:,:----::::%%%%++++1111",
"666688885555========2222####<<<<99998888:,::----::::%%%%++++1111",
"6868<<<<rrrrwwwweeee    :=::%&&&####iiiiyyyy5555%%%%1,1,----,,,,",
"8686<<<<rrrrwwwweeee    ::=:&&&&####iiiiyyyy5555%%%%,1,1----,,,,",
"6868<<<<rrrrwwwweeee    ==::&&&&####iiiiyyyy5555%%%%1,1,----,,,,",
"8686<<<<rrrrwwwweeew    :::=&&&&####iiiiyyyy5555%%%%,1,1----,,,,",
"tttt    aaaa****::::    3333    66660000uuuupppp    @@@@%#%#    ",
"tttt    aaaa****::::    3333    66660000uuuupppp    @@@@#%#%    ",
"tttt    aaaa****::::    3333    6666009ruuuupppp    @@@@%#%#    ",
"tttt    aaaa****:::>    3333    66660099uuuupppp    @@@@#%#%    ",
"    oooo        5333            ####    1111    ....        ....",
"    oooo        3353            ####    1111    ....        ....",
"    oooo        3535            ####    1111    ....        ....",
"    oooo        3533            ####    1111    ....        ....",
"OOOO....OOOOqqqq    OOOO........            oooo....OOOO    ....",
"OOOO....OOOOqqqq    OOOO........            oooo....OOOO    ....",
"OOOO....OOOOqqqq    OOOO........            oooo....OOOO    ....",
"OOOO....OOOOqqqq    OOOO........            oooo....OOOO    ....",
"....    OOOOOOOO....OOOO            ........    ............qqqq",
"....    OOOOOOOO....OOOO            ........    ............qqqq",
"....    OOOOOOOO....OOOO            ........    ............qqqq",
"....    OOOOOOOO....OOOO            ........    ............qqqq",
"qqqq............ssss........qqqqqqqq....qqqqqqqq....OOOO....OOOO",
"qqqq............ssss........qqqqqqqq....qqqqqqqq....OOOO....OOOO",
"qqqq............ssss........qqqqqqqq....qqqqqqqq....OOOO....OOOO",
"qqqq............ssss........qqqqqqqq....qqqqqqqq....OOOO....OOOO",
"........qqqqqqqqOOOOOOOO........OOOO    OOOOOOOO........OOOOOOOO",
"........qqqqqqqqOOOOOOOO........OOOO    OOOOOOOO........OOOOOOOO",
"........qqqqqqqqOOOOOOOO........OOOO    OOOOOOOO........OOOOOOOO",
"........qqqqqqqqOOOOOOOO........OOOO    OOOOOOOO........OOOOOOOO",
"OOOO........OOOO....OOOO....    ....OOOOOOOO............    ....",
"OOOO........OOOO....OOOO....    ....OOOOOOOO............    ....",
"OOOO........OOOO....OOOO....    ....OOOOOOOO............    ....",
"OOOO........OOOO....OOOO....    ....OOOOOOOO............    ....",
"....OOOO    ........        ....................qqqqqqqq....OOOO",
"....OOOO    ........        ....................qqqqqqqq....OOOO",
"....OOOO    ........        ....................qqqqqqqq....OOOO",
"....OOOO    ........        ....................qqqqqqqq....OOOO",
"....OOOO....qqqqqqqq....qqqqOOOO    qqqqqqqq    OOOOOOOOssss....",
"....OOOO....qqqqqqqq....qqqqOOOO    qqqqqqqq    OOOOOOOOssss....",
"....OOOO....qqqqqqqq....qqqqOOOO    qqqqqqqq    OOOOOOOOssss....",
"....OOOO....qqqqqqqq....qqqqOOOO    qqqqqqqq    OOOOOOOOssss....",
"OOOO........OOOOOOOOqqqq....OOOOooooOOOOOOOO....    OOOO....    ",
"OOOO........OOOOOOOOqqqq....OOOOooooOOOOOOOO....    OOOO....    ",
"OOOO........OOOOOOOOqqqq....OOOOooooOOOOOOOO....    OOOO....    ",
"OOOO........OOOOOOOOqqqq....OOOOooooOOOOOOOO....    OOOO....    ",
"....    OOOO....OOOOOOOOqqqq............................qqqqqqqq",
"....    OOOO....OOOOOOOOqqqq............................qqqqqqqq",
"....    OOOO....OOOOOOOOqqqq............................qqqqqqqq",
"....    OOOO....OOOOOOOOqqqq............................qqqqqqqq",
"....OOOO........XXXX....OOOOOOOO....    qqqq    ....qqqqOOOOOOOO",
"....OOOO........XXXX....OOOOOOOO....    qqqq    ....qqqqOOOOOOOO",
"....OOOO........XXXX....OOOOOOOO....    qqqq    ....qqqqOOOOOOOO",
"....OOOO........XXXX....OOOOOOOO....    qqqq    ....qqqqOOOOOOOO",
"OOOO....    qqqq....    ....    qqqqqqqq....OOOO........OOOOOOOO",
"OOOO....    qqqq....    ....    qqqqqqqq....OOOO........OOOOOOOO",
"OOOO....    qqqq....    ....    qqqqqqqq....OOOO........OOOOOOOO",
"OOOO....    qqqq....    ....    qqqqqqqq....OOOO........OOOOOOOO",
"OOOO....qqqqOOOOOOOO....ssss....OOOOOOOO........OOOOOOOO....    ",
"OOOO....qqqqOOOOOOOO....ssss....OOOOOOOO........OOOOOOOO....    ",
"OOOO....qqqqOOOOOOOO....ssss....OOOOOOOO........OOOOOOOO....    ",
"OOOO....qqqqOOOOOOOO....ssss....OOOOOOOO........OOOOOOOO....    "
};
