/* XPM */
static char *iron_ore1670510338[] = {
/* columns rows colors chars-per-pixel */
"64 64 9 1 ",
"  c #77674F",
". c #686868",
"X c #747474",
"o c gray50",
"O c #887455",
"+ c #AF8E77",
"@ c gray56",
"# c #D8AF93",
"$ c #E2C0AA",
/* pixels */
"@@@@ooooooooooooooooXXXXXXXXooooXXXX....XXXXXXXXXXXXXXXX@@@@@@@@",
"@@@@ooooooooooooooooXXXXXXXXooooXXXX....XXXXXXXXXXXXXXXX@@@@@@@@",
"@@@@ooooooooooooooooXXXXXXXXooooXXXX....XXXXXXXXXXXXXXXX@@@@@@@@",
"@@@@ooooooooooooooooXXXXXXXXooooXXXX....XXXXXXXXXXXXXXXX@@@@@@@@",
"ooooooooXXXX........oooooooo@@@@@@@@oooo    OOOOOOOO    ooooXXXX",
"ooooooooXXXX........oooooooo@@@@@@@@oooo    OOOOOOOO    ooooXXXX",
"ooooooooXXXX........oooooooo@@@@@@@@oooo    OOOOOOOO    ooooXXXX",
"ooooooooXXXX........oooooooo@@@@@@@@oooo    OOOOOOOO    ooooXXXX",
"ooooXXXXOOOO++++OOOOXXXXoooo....XXXXXXXXooooOOOO++++oooooooooooo",
"ooooXXXXOOOO++++OOOOXXXXoooo....XXXXXXXXooooOOOO++++oooooooooooo",
"ooooXXXXOOOO++++OOOOXXXXoooo....XXXXXXXXooooOOOO++++oooooooooooo",
"ooooXXXXOOOO++++OOOOXXXXoooo....XXXXXXXXooooOOOO++++oooooooooooo",
"ooooOOOO++++####@@@@ooooXXXX............XXXXooooooooXXXXXXXXXXXX",
"ooooOOOO++++####@@@@ooooXXXX............XXXXooooooooXXXXXXXXXXXX",
"ooooOOOO++++####@@@@ooooXXXX............XXXXooooooooXXXXXXXXXXXX",
"ooooOOOO++++####@@@@ooooXXXX............XXXXooooooooXXXXXXXXXXXX",
"XXXX@@@@@@@@@@@@XXXX........OOOOOOOO++++++++OOOO........XXXXoooo",
"XXXX@@@@@@@@@@@@XXXX........OOOOOOOO++++++++OOOO........XXXXoooo",
"XXXX@@@@@@@@@@@@XXXX........OOOOOOOO++++++++OOOO........XXXXoooo",
"XXXX@@@@@@@@@@@@XXXX........OOOOOOOO++++++++OOOO........XXXXoooo",
"oooo@@@@ooooooooOOOO++++########$$$$####++++ooooXXXXOOOO++++@@@@",
"oooo@@@@ooooooooOOOO++++########$$$$####++++ooooXXXXOOOO++++@@@@",
"oooo@@@@ooooooooOOOO++++########$$$$####++++ooooXXXXOOOO++++@@@@",
"oooo@@@@ooooooooOOOO++++########$$$$####++++ooooXXXXOOOO++++@@@@",
"XXXXoooooooo@@@@@@@@@@@@++++########@@@@ooooXXXXoooo@@@@@@@@oooo",
"XXXXoooooooo@@@@@@@@@@@@++++########@@@@ooooXXXXoooo@@@@@@@@oooo",
"XXXXoooooooo@@@@@@@@@@@@++++########@@@@ooooXXXXoooo@@@@@@@@oooo",
"XXXXoooooooo@@@@@@@@@@@@++++########@@@@ooooXXXXoooo@@@@@@@@oooo",
"XXXXXXXXoooo........XXXX@@@@@@@@@@@@ooooXXXX........oooooooooooo",
"XXXXXXXXoooo........XXXX@@@@@@@@@@@@ooooXXXX........oooooooooooo",
"XXXXXXXXoooo........XXXX@@@@@@@@@@@@ooooXXXX........oooooooooooo",
"XXXXXXXXoooo........XXXX@@@@@@@@@@@@ooooXXXX........oooooooooooo",
"@@@@@@@@....OOOO++++........XXXXoooo    OOOO++++    XXXXooooXXXX",
"@@@@@@@@....OOOO++++........XXXXoooo    OOOO++++    XXXXooooXXXX",
"@@@@@@@@....OOOO++++........XXXXoooo    OOOO++++    XXXXooooXXXX",
"@@@@@@@@....OOOO++++........XXXXoooo    OOOO++++    XXXXooooXXXX",
"oooo@@@@    ++++++++########@@@@oooo@@@@++++####@@@@@@@@@@@@oooo",
"oooo@@@@    ++++++++########@@@@oooo@@@@++++####@@@@@@@@@@@@oooo",
"oooo@@@@    ++++++++########@@@@oooo@@@@++++####@@@@@@@@@@@@oooo",
"oooo@@@@    ++++++++########@@@@oooo@@@@++++####@@@@@@@@@@@@oooo",
"....oooo@@@@@@@@####$$$$@@@@....XXXXoooo@@@@@@@@ooooXXXXXXXXXXXX",
"....oooo@@@@@@@@####$$$$@@@@....XXXXoooo@@@@@@@@ooooXXXXXXXXXXXX",
"....oooo@@@@@@@@####$$$$@@@@....XXXXoooo@@@@@@@@ooooXXXXXXXXXXXX",
"....oooo@@@@@@@@####$$$$@@@@....XXXXoooo@@@@@@@@ooooXXXXXXXXXXXX",
"oooooooooooooooo@@@@@@@@oooo@@@@oooooooooooo    OOOO@@@@oooo@@@@",
"oooooooooooooooo@@@@@@@@oooo@@@@oooooooooooo    OOOO@@@@oooo@@@@",
"oooooooooooooooo@@@@@@@@oooo@@@@oooooooooooo    OOOO@@@@oooo@@@@",
"oooooooooooooooo@@@@@@@@oooo@@@@oooooooooooo    OOOO@@@@oooo@@@@",
"ooooXXXX....XXXXOOOO++++@@@@XXXX    OOOO++++########++++OOOOXXXX",
"ooooXXXX....XXXXOOOO++++@@@@XXXX    OOOO++++########++++OOOOXXXX",
"ooooXXXX....XXXXOOOO++++@@@@XXXX    OOOO++++########++++OOOOXXXX",
"ooooXXXX....XXXXOOOO++++@@@@XXXX    OOOO++++########++++OOOOXXXX",
"@@@@OOOO++++XXXXoooo@@@@ooooXXXX@@@@++++####$$$$++++@@@@@@@@oooo",
"@@@@OOOO++++XXXXoooo@@@@ooooXXXX@@@@++++####$$$$++++@@@@@@@@oooo",
"@@@@OOOO++++XXXXoooo@@@@ooooXXXX@@@@++++####$$$$++++@@@@@@@@oooo",
"@@@@OOOO++++XXXXoooo@@@@ooooXXXX@@@@++++####$$$$++++@@@@@@@@oooo",
"oooo@@@@OOOO    XXXXoooooooooooooooo@@@@@@@@@@@@@@@@oooooooooooo",
"oooo@@@@OOOO    XXXXoooooooooooooooo@@@@@@@@@@@@@@@@oooooooooooo",
"oooo@@@@OOOO    XXXXoooooooooooooooo@@@@@@@@@@@@@@@@oooooooooooo",
"oooo@@@@OOOO    XXXXoooooooooooooooo@@@@@@@@@@@@@@@@oooooooooooo",
"oooooooo@@@@@@@@ooooooooXXXXXXXXoooooooo@@@@@@@@ooooXXXXoooooooo",
"oooooooo@@@@@@@@ooooooooXXXXXXXXoooooooo@@@@@@@@ooooXXXXoooooooo",
"oooooooo@@@@@@@@ooooooooXXXXXXXXoooooooo@@@@@@@@ooooXXXXoooooooo",
"oooooooo@@@@@@@@ooooooooXXXXXXXXoooooooo@@@@@@@@ooooXXXXoooooooo"
};
