/* XPM */
static char *netherrack1670510374[] = {
/* columns rows colors chars-per-pixel */
"64 64 7 1 ",
"  c #411616",
". c #511515",
"X c #501B1B",
"o c #572121",
"O c #652828",
"+ c #723232",
"@ c #854242",
/* pixels */
"....oooo....XXXXOOOOXXXX++++++++OOOOOOOO    OOOOOOOO++++OOOOoooo",
"....oooo....XXXXOOOOXXXX++++++++OOOOOOOO    OOOOOOOO++++OOOOoooo",
"....oooo....XXXXOOOOXXXX++++++++OOOOOOOO    OOOOOOOO++++OOOOoooo",
"....oooo....XXXXOOOOXXXX++++++++OOOOOOOO    OOOOOOOO++++OOOOoooo",
"ooooOOOOOOOOooooXXXX    XXXXOOOO++++XXXX....    OOOOOOOOXXXX....",
"ooooOOOOOOOOooooXXXX    XXXXOOOO++++XXXX....    OOOOOOOOXXXX....",
"ooooOOOOOOOOooooXXXX    XXXXOOOO++++XXXX....    OOOOOOOOXXXX....",
"ooooOOOOOOOOooooXXXX    XXXXOOOO++++XXXX....    OOOOOOOOXXXX....",
"++++OOOO++++OOOOoooo    ....XXXXOOOOooooXXXX....OOOOXXXXOOOO++++",
"++++OOOO++++OOOOoooo    ....XXXXOOOOooooXXXX....OOOOXXXXOOOO++++",
"++++OOOO++++OOOOoooo    ....XXXXOOOOooooXXXX....OOOOXXXXOOOO++++",
"++++OOOO++++OOOOoooo    ....XXXXOOOOooooXXXX....OOOOXXXXOOOO++++",
"@@@@++++OOOO++++OOOOXXXXoooo++++OOOO++++++++oooo....OOOOXXXXOOOO",
"@@@@++++OOOO++++OOOOXXXXoooo++++OOOO++++++++oooo....OOOOXXXXOOOO",
"@@@@++++OOOO++++OOOOXXXXoooo++++OOOO++++++++oooo....OOOOXXXXOOOO",
"@@@@++++OOOO++++OOOOXXXXoooo++++OOOO++++++++oooo....OOOOXXXXOOOO",
"++++@@@@++++OOOOXXXXOOOO++++@@@@@@@@OOOO++++++++XXXX++++OOOOoooo",
"++++@@@@++++OOOOXXXXOOOO++++@@@@@@@@OOOO++++++++XXXX++++OOOOoooo",
"++++@@@@++++OOOOXXXXOOOO++++@@@@@@@@OOOO++++++++XXXX++++OOOOoooo",
"++++@@@@++++OOOOXXXXOOOO++++@@@@@@@@OOOO++++++++XXXX++++OOOOoooo",
"....++++OOOOoooo....++++@@@@@@@@++++++++OOOOXXXXOOOOOOOO++++OOOO",
"....++++OOOOoooo....++++@@@@@@@@++++++++OOOOXXXXOOOOOOOO++++OOOO",
"....++++OOOOoooo....++++@@@@@@@@++++++++OOOOXXXXOOOOOOOO++++OOOO",
"....++++OOOOoooo....++++@@@@@@@@++++++++OOOOXXXXOOOOOOOO++++OOOO",
"....OOOO++++XXXX    ++++OOOO++++++++OOOOXXXX....OOOO++++@@@@++++",
"....OOOO++++XXXX    ++++OOOO++++++++OOOOXXXX....OOOO++++@@@@++++",
"....OOOO++++XXXX    ++++OOOO++++++++OOOOXXXX....OOOO++++@@@@++++",
"....OOOO++++XXXX    ++++OOOO++++++++OOOOXXXX....OOOO++++@@@@++++",
"++++oooo....    XXXXOOOO++++OOOO........++++OOOOXXXXOOOO@@@@@@@@",
"++++oooo....    XXXXOOOO++++OOOO........++++OOOOXXXXOOOO@@@@@@@@",
"++++oooo....    XXXXOOOO++++OOOO........++++OOOOXXXXOOOO@@@@@@@@",
"++++oooo....    XXXXOOOO++++OOOO........++++OOOOXXXXOOOO@@@@@@@@",
"OOOOXXXXOOOO++++OOOOXXXXXXXX....OOOOOOOO++++++++OOOO....OOOO++++",
"OOOOXXXXOOOO++++OOOOXXXXXXXX....OOOOOOOO++++++++OOOO....OOOO++++",
"OOOOXXXXOOOO++++OOOOXXXXXXXX....OOOOOOOO++++++++OOOO....OOOO++++",
"OOOOXXXXOOOO++++OOOOXXXXXXXX....OOOOOOOO++++++++OOOO....OOOO++++",
"XXXXOOOO++++@@@@++++OOOO    XXXXOOOO++++OOOO++++++++........XXXX",
"XXXXOOOO++++@@@@++++OOOO    XXXXOOOO++++OOOO++++++++........XXXX",
"XXXXOOOO++++@@@@++++OOOO    XXXXOOOO++++OOOO++++++++........XXXX",
"XXXXOOOO++++@@@@++++OOOO    XXXXOOOO++++OOOO++++++++........XXXX",
"oooo++++OOOO++++++++OOOO    XXXX++++@@@@++++++++XXXX        XXXX",
"oooo++++OOOO++++++++OOOO    XXXX++++@@@@++++++++XXXX        XXXX",
"oooo++++OOOO++++++++OOOO    XXXX++++@@@@++++++++XXXX        XXXX",
"oooo++++OOOO++++++++OOOO    XXXX++++@@@@++++++++XXXX        XXXX",
"OOOOXXXXXXXX++++OOOOXXXX....    XXXX++++OOOO....    XXXXooooXXXX",
"OOOOXXXXXXXX++++OOOOXXXX....    XXXX++++OOOO....    XXXXooooXXXX",
"OOOOXXXXXXXX++++OOOOXXXX....    XXXX++++OOOO....    XXXXooooXXXX",
"OOOOXXXXXXXX++++OOOOXXXX....    XXXX++++OOOO....    XXXXooooXXXX",
"....OOOO++++OOOOXXXX++++OOOO....XXXXXXXX....++++OOOO++++OOOO....",
"....OOOO++++OOOOXXXX++++OOOO....XXXXXXXX....++++OOOO++++OOOO....",
"....OOOO++++OOOOXXXX++++OOOO....XXXXXXXX....++++OOOO++++OOOO....",
"....OOOO++++OOOOXXXX++++OOOO....XXXXXXXX....++++OOOO++++OOOO....",
"oooo++++OOOO++++++++@@@@++++....XXXXXXXXooooOOOO++++@@@@++++....",
"oooo++++OOOO++++++++@@@@++++....XXXXXXXXooooOOOO++++@@@@++++....",
"oooo++++OOOO++++++++@@@@++++....XXXXXXXXooooOOOO++++@@@@++++....",
"oooo++++OOOO++++++++@@@@++++....XXXXXXXXooooOOOO++++@@@@++++....",
"XXXXOOOO++++++++@@@@OOOOXXXXooooXXXX    OOOO++++OOOO++++OOOOOOOO",
"XXXXOOOO++++++++@@@@OOOOXXXXooooXXXX    OOOO++++OOOO++++OOOOOOOO",
"XXXXOOOO++++++++@@@@OOOOXXXXooooXXXX    OOOO++++OOOO++++OOOOOOOO",
"XXXXOOOO++++++++@@@@OOOOXXXXooooXXXX    OOOO++++OOOO++++OOOOOOOO",
"XXXXXXXXOOOO++++++++XXXXOOOO++++oooo    XXXXOOOO++++++++OOOOOOOO",
"XXXXXXXXOOOO++++++++XXXXOOOO++++oooo    XXXXOOOO++++++++OOOOOOOO",
"XXXXXXXXOOOO++++++++XXXXOOOO++++oooo    XXXXOOOO++++++++OOOOOOOO",
"XXXXXXXXOOOO++++++++XXXXOOOO++++oooo    XXXXOOOO++++++++OOOOOOOO"
};
