/* XPM */
static char *nether_quartz_ore1670510374[] = {
/* columns rows colors chars-per-pixel */
"64 64 12 1 ",
"  c #411616",
". c #511515",
"X c #501B1B",
"o c #572121",
"O c #652828",
"+ c #723232",
"@ c #6F5843",
"# c #854242",
"$ c #AC716A",
"% c #B6A48E",
"& c #D4CABA",
"* c #EAE5DE",
/* pixels */
"....oooo....XXXXOOOOXXXX++++++++OOOOOOOO    OOOOOOOO++++OOOOoooo",
"....oooo....XXXXOOOOXXXX++++++++OOOOOOOO    OOOOOOOO++++OOOOoooo",
"....oooo....XXXXOOOOXXXX++++++++OOOOOOOO    OOOOOOOO++++OOOOoooo",
"....oooo....XXXXOOOOXXXX++++++++OOOOOOOO    OOOOOOOO++++OOOOoooo",
"ooooOOOOOOOOooooXXXX    XXXXOOOO++++++++....    OOOOOOOOXXXX....",
"ooooOOOOOOOOooooXXXX    XXXXOOOO++++++++....    OOOOOOOOXXXX....",
"ooooOOOOOOOOooooXXXX    XXXXOOOO++++++++....    OOOOOOOOXXXX....",
"ooooOOOOOOOOooooXXXX    XXXXOOOO++++++++....    OOOOOOOOXXXX....",
"++++OOOO++++OOOOoooo    ++++$$$$&&&&%%%%XXXX....OOOOXXXXOOOO++++",
"++++OOOO++++OOOOoooo    ++++$$$$&&&&%%%%XXXX....OOOOXXXXOOOO++++",
"++++OOOO++++OOOOoooo    ++++$$$$&&&&%%%%XXXX....OOOOXXXXOOOO++++",
"++++OOOO++++OOOOoooo    ++++$$$$&&&&%%%%XXXX....OOOOXXXXOOOO++++",
"####++++OOOO++++++++****&&&&&&&&$$$$++++++++oooo....OOOOXXXXOOOO",
"####++++OOOO++++++++****&&&&&&&&$$$$++++++++oooo....OOOOXXXXOOOO",
"####++++OOOO++++++++****&&&&&&&&$$$$++++++++oooo....OOOOXXXXOOOO",
"####++++OOOO++++++++****&&&&&&&&$$$$++++++++oooo....OOOOXXXXOOOO",
"++++####++++++++****&&&&$$$$++++####OOOO++++++++XXXX++++OOOOoooo",
"++++####++++++++****&&&&$$$$++++####OOOO++++++++XXXX++++OOOOoooo",
"++++####++++++++****&&&&$$$$++++####OOOO++++++++XXXX++++OOOOoooo",
"++++####++++++++****&&&&$$$$++++####OOOO++++++++XXXX++++OOOOoooo",
"....++++++++$$$$%%%%@@@@++++####$$$$&&&&$$$$@@@@OOOOOOOO++++OOOO",
"....++++++++$$$$%%%%@@@@++++####$$$$&&&&$$$$@@@@OOOOOOOO++++OOOO",
"....++++++++$$$$%%%%@@@@++++####$$$$&&&&$$$$@@@@OOOOOOOO++++OOOO",
"....++++++++$$$$%%%%@@@@++++####$$$$&&&&$$$$@@@@OOOOOOOO++++OOOO",
"....OOOO++++++++@@@@++++@@@@****&&&&%%%%@@@@....OOOO++++$$$$++++",
"....OOOO++++++++@@@@++++@@@@****&&&&%%%%@@@@....OOOO++++$$$$++++",
"....OOOO++++++++@@@@++++@@@@****&&&&%%%%@@@@....OOOO++++$$$$++++",
"....OOOO++++++++@@@@++++@@@@****&&&&%%%%@@@@....OOOO++++$$$$++++",
"++++oooo....    XXXX$$$$%%%%$$$$@@@@++++++++OOOOXXXX****%%%%####",
"++++oooo....    XXXX$$$$%%%%$$$$@@@@++++++++OOOOXXXX****%%%%####",
"++++oooo....    XXXX$$$$%%%%$$$$@@@@++++++++OOOOXXXX****%%%%####",
"++++oooo....    XXXX$$$$%%%%$$$$@@@@++++++++OOOOXXXX****%%%%####",
"OOOOXXXXOOOO++++%%%%****$$$$....OOOOOOOO++++++++&&&&****$$$$++++",
"OOOOXXXXOOOO++++%%%%****$$$$....OOOOOOOO++++++++&&&&****$$$$++++",
"OOOOXXXXOOOO++++%%%%****$$$$....OOOOOOOO++++++++&&&&****$$$$++++",
"OOOOXXXXOOOO++++%%%%****$$$$....OOOOOOOO++++++++&&&&****$$$$++++",
"XXXXOOOO++++####****&&&&++++XXXXOOOO++++OOOO++++****%%%%@@@@XXXX",
"XXXXOOOO++++####****&&&&++++XXXXOOOO++++OOOO++++****%%%%@@@@XXXX",
"XXXXOOOO++++####****&&&&++++XXXXOOOO++++OOOO++++****%%%%@@@@XXXX",
"XXXXOOOO++++####****&&&&++++XXXXOOOO++++OOOO++++****%%%%@@@@XXXX",
"oooo++++OOOO&&&&%%%%@@@@    XXXX++++$$$$++++++++@@@@++++    XXXX",
"oooo++++OOOO&&&&%%%%@@@@    XXXX++++$$$$++++++++@@@@++++    XXXX",
"oooo++++OOOO&&&&%%%%@@@@    XXXX++++$$$$++++++++@@@@++++    XXXX",
"oooo++++OOOO&&&&%%%%@@@@    XXXX++++$$$$++++++++@@@@++++    XXXX",
"OOOOXXXX++++$$$$@@@@XXXX....    $$$$****++++....++++XXXXooooXXXX",
"OOOOXXXX++++$$$$@@@@XXXX....    $$$$****++++....++++XXXXooooXXXX",
"OOOOXXXX++++$$$$@@@@XXXX....    $$$$****++++....++++XXXXooooXXXX",
"OOOOXXXX++++$$$$@@@@XXXX....    $$$$****++++....++++XXXXooooXXXX",
"....OOOO++++OOOOXXXX++++OOOO%%%%&&&&%%%%....++++OOOO%%%%OOOO....",
"....OOOO++++OOOOXXXX++++OOOO%%%%&&&&%%%%....++++OOOO%%%%OOOO....",
"....OOOO++++OOOOXXXX++++OOOO%%%%&&&&%%%%....++++OOOO%%%%OOOO....",
"....OOOO++++OOOOXXXX++++OOOO%%%%&&&&%%%%....++++OOOO%%%%OOOO....",
"oooo++++OOOO++++++++####++++$$$$%%%%XXXXoooo$$$$%%%%####++++....",
"oooo++++OOOO++++++++####++++$$$$%%%%XXXXoooo$$$$%%%%####++++....",
"oooo++++OOOO++++++++####++++$$$$%%%%XXXXoooo$$$$%%%%####++++....",
"oooo++++OOOO++++++++####++++$$$$%%%%XXXXoooo$$$$%%%%####++++....",
"XXXXOOOO++++++++####OOOOXXXXoooo$$$$    OOOO++++OOOO++++OOOOOOOO",
"XXXXOOOO++++++++####OOOOXXXXoooo$$$$    OOOO++++OOOO++++OOOOOOOO",
"XXXXOOOO++++++++####OOOOXXXXoooo$$$$    OOOO++++OOOO++++OOOOOOOO",
"XXXXOOOO++++++++####OOOOXXXXoooo$$$$    OOOO++++OOOO++++OOOOOOOO",
"XXXXXXXXOOOO++++++++XXXXOOOO++++oooo    XXXXOOOO++++++++OOOOOOOO",
"XXXXXXXXOOOO++++++++XXXXOOOO++++oooo    XXXXOOOO++++++++OOOOOOOO",
"XXXXXXXXOOOO++++++++XXXXOOOO++++oooo    XXXXOOOO++++++++OOOOOOOO",
"XXXXXXXXOOOO++++++++XXXXOOOO++++oooo    XXXXOOOO++++++++OOOOOOOO"
};
