/* XPM */
static char *nether_bricks1670510373[] = {
/* columns rows colors chars-per-pixel */
"64 64 7 1 ",
"  c #190D10",
". c #211114",
"X c #291519",
"o c #30181C",
"O c #38181E",
"+ c #3E1E24",
"@ c #44242A",
/* pixels */
"                                                                ",
"                                                                ",
"                                                                ",
"                                                                ",
"++++++++@@@@++++....++++@@@@@@@@@@@@++++++++++++....@@@@++++++++",
"++++++++@@@@++++....++++@@@@@@@@@@@@++++++++++++....@@@@++++++++",
"++++++++@@@@++++....++++@@@@@@@@@@@@++++++++++++....@@@@++++++++",
"++++++++@@@@++++....++++@@@@@@@@@@@@++++++++++++....@@@@++++++++",
"ooooXXXXooooOOOO    OOOOooooooooooooooooooooOOOO    ++++oooooooo",
"ooooXXXXooooOOOO    OOOOooooooooooooooooooooOOOO    ++++oooooooo",
"ooooXXXXooooOOOO    OOOOooooooooooooooooooooOOOO    ++++oooooooo",
"ooooXXXXooooOOOO    OOOOooooooooooooooooooooOOOO    ++++oooooooo",
"ooooOOOOooooXXXX....ooooooooXXXXXXXXooooooooXXXX....oooooooooooo",
"ooooOOOOooooXXXX....ooooooooXXXXXXXXooooooooXXXX....oooooooooooo",
"ooooOOOOooooXXXX....ooooooooXXXXXXXXooooooooXXXX....oooooooooooo",
"ooooOOOOooooXXXX....ooooooooXXXXXXXXooooooooXXXX....oooooooooooo",
"            ............                    ............        ",
"            ............                    ............        ",
"            ............                    ............        ",
"            ............                    ............        ",
"....++++@@@@@@@@@@@@++++OOOOOOOO....++++++++++++OOOO++++++++OOOO",
"....++++@@@@@@@@@@@@++++OOOOOOOO....++++++++++++OOOO++++++++OOOO",
"....++++@@@@@@@@@@@@++++OOOOOOOO....++++++++++++OOOO++++++++OOOO",
"....++++@@@@@@@@@@@@++++OOOOOOOO....++++++++++++OOOO++++++++OOOO",
"    ++++OOOOoooooooooooooooooooo    @@@@OOOOoooooooooooooooooooo",
"    ++++OOOOoooooooooooooooooooo    @@@@OOOOoooooooooooooooooooo",
"    ++++OOOOoooooooooooooooooooo    @@@@OOOOoooooooooooooooooooo",
"    ++++OOOOoooooooooooooooooooo    @@@@OOOOoooooooooooooooooooo",
"....OOOOooooooooooooooooXXXXXXXX....OOOOooooooooXXXXOOOOooooXXXX",
"....OOOOooooooooooooooooXXXXXXXX....OOOOooooooooXXXXOOOOooooXXXX",
"....OOOOooooooooooooooooXXXXXXXX....OOOOooooooooXXXXOOOOooooXXXX",
"....OOOOooooooooooooooooXXXXXXXX....OOOOooooooooXXXXOOOOooooXXXX",
"........                    ............                    ....",
"........                    ............                    ....",
"........                    ............                    ....",
"........                    ............                    ....",
"OOOOOOOO....@@@@@@@@OOOO....@@@@OOOOOOOO....@@@@OOOOOOOO....OOOO",
"OOOOOOOO....@@@@@@@@OOOO....@@@@OOOOOOOO....@@@@OOOOOOOO....OOOO",
"OOOOOOOO....@@@@@@@@OOOO....@@@@OOOOOOOO....@@@@OOOOOOOO....OOOO",
"OOOOOOOO....@@@@@@@@OOOO....@@@@OOOOOOOO....@@@@OOOOOOOO....OOOO",
"oooooooo    OOOOoooooooo    @@@@oooooooo    OOOOoooooooo    OOOO",
"oooooooo    OOOOoooooooo    @@@@oooooooo    OOOOoooooooo    OOOO",
"oooooooo    OOOOoooooooo    @@@@oooooooo    OOOOoooooooo    OOOO",
"oooooooo    OOOOoooooooo    @@@@oooooooo    OOOOoooooooo    OOOO",
"XXXXoooo....OOOOoooooooo....OOOOooooXXXX....oooooooooooo....OOOO",
"XXXXoooo....OOOOoooooooo....OOOOooooXXXX....oooooooooooo....OOOO",
"XXXXoooo....OOOOoooooooo....OOOOooooXXXX....oooooooooooo....OOOO",
"XXXXoooo....OOOOoooooooo....OOOOooooXXXX....oooooooooooo....OOOO",
"    ............    ............    ............    ............",
"    ............    ............    ............    ............",
"    ............    ............    ............    ............",
"    ............    ............    ............    ............",
"OOOO@@@@OOOOOOOO....OOOO@@@@@@@@@@@@@@@@OOOOOOOO....@@@@@@@@OOOO",
"OOOO@@@@OOOOOOOO....OOOO@@@@@@@@@@@@@@@@OOOOOOOO....@@@@@@@@OOOO",
"OOOO@@@@OOOOOOOO....OOOO@@@@@@@@@@@@@@@@OOOOOOOO....@@@@@@@@OOOO",
"OOOO@@@@OOOOOOOO....OOOO@@@@@@@@@@@@@@@@OOOOOOOO....@@@@@@@@OOOO",
"oooooooooooooooo    OOOOooooooooooooOOOOOOOOoooo    oooooooooooo",
"oooooooooooooooo    OOOOooooooooooooOOOOOOOOoooo    oooooooooooo",
"oooooooooooooooo    OOOOooooooooooooOOOOOOOOoooo    oooooooooooo",
"oooooooooooooooo    OOOOooooooooooooOOOOOOOOoooo    oooooooooooo",
"ooooooooXXXXXXXX    oooooooooooooooooooooooooooo    oooooooooooo",
"ooooooooXXXXXXXX    oooooooooooooooooooooooooooo    oooooooooooo",
"ooooooooXXXXXXXX    oooooooooooooooooooooooooooo    oooooooooooo",
"ooooooooXXXXXXXX    oooooooooooooooooooooooooooo    oooooooooooo"
};
