/* XPM */
static char *nether_wart_block1670510374[] = {
/* columns rows colors chars-per-pixel */
"64 64 5 1 ",
"  c #5A0000",
". c #6A0400",
"X c #7B0000",
"o c #941818",
"O c #AC2020",
/* pixels */
"XXXXXXXXXXXXXXXX....    ....XXXXXXXXXXXXXXXX    XXXXXXXXXXXX....",
"XXXXXXXXXXXXXXXX....    ....XXXXXXXXXXXXXXXX    XXXXXXXXXXXX....",
"XXXXXXXXXXXXXXXX....    ....XXXXXXXXXXXXXXXX    XXXXXXXXXXXX....",
"XXXXXXXXXXXXXXXX....    ....XXXXXXXXXXXXXXXX    XXXXXXXXXXXX....",
"XXXXXXXX........ooooOOOOXXXX    XXXX........        XXXXXXXX....",
"XXXXXXXX........ooooOOOOXXXX    XXXX........        XXXXXXXX....",
"XXXXXXXX........ooooOOOOXXXX    XXXX........        XXXXXXXX....",
"XXXXXXXX........ooooOOOOXXXX    XXXX........        XXXXXXXX....",
"........XXXXXXXX....XXXXXXXXXXXXXXXX    XXXXXXXX    XXXXooooXXXX",
"........XXXXXXXX....XXXXXXXXXXXXXXXX    XXXXXXXX    XXXXooooXXXX",
"........XXXXXXXX....XXXXXXXXXXXXXXXX    XXXXXXXX    XXXXooooXXXX",
"........XXXXXXXX....XXXXXXXXXXXXXXXX    XXXXXXXX    XXXXooooXXXX",
"    ....XXXXXXXXXXXX    ....        ooooXXXX    XXXXXXXXOOOOXXXX",
"    ....XXXXXXXXXXXX    ....        ooooXXXX    XXXXXXXXOOOOXXXX",
"    ....XXXXXXXXXXXX    ....        ooooXXXX    XXXXXXXXOOOOXXXX",
"    ....XXXXXXXXXXXX    ....        ooooXXXX    XXXXXXXXOOOOXXXX",
"    OOOOXXXXXXXXXXXX        XXXX....XXXX............XXXXXXXX....",
"    OOOOXXXXXXXXXXXX        XXXX....XXXX............XXXXXXXX....",
"    OOOOXXXXXXXXXXXX        XXXX....XXXX............XXXXXXXX....",
"    OOOOXXXXXXXXXXXX        XXXX....XXXX............XXXXXXXX....",
"    ooooXXXXXXXXOOOOoooo        XXXXXXXXXXXXXXXX    ....XXXX    ",
"    ooooXXXXXXXXOOOOoooo        XXXXXXXXXXXXXXXX    ....XXXX    ",
"    ooooXXXXXXXXOOOOoooo        XXXXXXXXXXXXXXXX    ....XXXX    ",
"    ooooXXXXXXXXOOOOoooo        XXXXXXXXXXXXXXXX    ....XXXX    ",
"....    XXXXXXXXXXXXXXXX    ....XXXXXXXXXXXXOOOOXXXX        XXXX",
"....    XXXXXXXXXXXXXXXX    ....XXXXXXXXXXXXOOOOXXXX        XXXX",
"....    XXXXXXXXXXXXXXXX    ....XXXXXXXXXXXXOOOOXXXX        XXXX",
"....    XXXXXXXXXXXXXXXX    ....XXXXXXXXXXXXOOOOXXXX        XXXX",
"XXXX....    XXXX....    XXXX........XXXXXXXXoooo....    XXXXXXXX",
"XXXX....    XXXX....    XXXX........XXXXXXXXoooo....    XXXXXXXX",
"XXXX....    XXXX....    XXXX........XXXXXXXXoooo....    XXXXXXXX",
"XXXX....    XXXX....    XXXX........XXXXXXXXoooo....    XXXXXXXX",
"XXXX                XXXXXXXX....XXXXXXXXXXXXXXXX        XXXXXXXX",
"XXXX                XXXXXXXX....XXXXXXXXXXXXXXXX        XXXXXXXX",
"XXXX                XXXXXXXX....XXXXXXXXXXXXXXXX        XXXXXXXX",
"XXXX                XXXXXXXX....XXXXXXXXXXXXXXXX        XXXXXXXX",
"XXXX    XXXXXXXXXXXXXXXX........ooooXXXXXXXX....    XXXX    XXXX",
"XXXX    XXXXXXXXXXXXXXXX........ooooXXXXXXXX....    XXXX    XXXX",
"XXXX    XXXXXXXXXXXXXXXX........ooooXXXXXXXX....    XXXX    XXXX",
"XXXX    XXXXXXXXXXXXXXXX........ooooXXXXXXXX....    XXXX    XXXX",
"    ....XXXXXXXX    ........    OOOO....XXXX    ....XXXXXXXX....",
"    ....XXXXXXXX    ........    OOOO....XXXX    ....XXXXXXXX....",
"    ....XXXXXXXX    ........    OOOO....XXXX    ....XXXXXXXX....",
"    ....XXXXXXXX    ........    OOOO....XXXX    ....XXXXXXXX....",
"    XXXXXXXX    ....    ....XXXX................XXXX....    OOOO",
"    XXXXXXXX    ....    ....XXXX................XXXX....    OOOO",
"    XXXXXXXX    ....    ....XXXX................XXXX....    OOOO",
"    XXXXXXXX    ....    ....XXXX................XXXX....    OOOO",
"XXXXXXXXoooo    ....XXXXXXXX    XXXXXXXX    ....XXXX    XXXXXXXX",
"XXXXXXXXoooo    ....XXXXXXXX    XXXXXXXX    ....XXXX    XXXXXXXX",
"XXXXXXXXoooo    ....XXXXXXXX    XXXXXXXX    ....XXXX    XXXXXXXX",
"XXXXXXXXoooo    ....XXXXXXXX    XXXXXXXX    ....XXXX    XXXXXXXX",
"XXXX....XXXX    ....XXXX    XXXXXXXX....    XXXXXXXXXXXX    XXXX",
"XXXX....XXXX    ....XXXX    XXXXXXXX....    XXXXXXXXXXXX    XXXX",
"XXXX....XXXX    ....XXXX    XXXXXXXX....    XXXXXXXXXXXX    XXXX",
"XXXX....XXXX    ....XXXX    XXXXXXXX....    XXXXXXXXXXXX    XXXX",
"XXXXXXXXXXXX    XXXXXXXX    XXXXXXXXXXXX    XXXXooooOOOO    XXXX",
"XXXXXXXXXXXX    XXXXXXXX    XXXXXXXXXXXX    XXXXooooOOOO    XXXX",
"XXXXXXXXXXXX    XXXXXXXX    XXXXXXXXXXXX    XXXXooooOOOO    XXXX",
"XXXXXXXXXXXX    XXXXXXXX    XXXXXXXXXXXX    XXXXooooOOOO    XXXX",
"XXXXXXXX    OOOOXXXX....    ooooXXXXXXXX    XXXXXXXXoooo    XXXX",
"XXXXXXXX    OOOOXXXX....    ooooXXXXXXXX    XXXXXXXXoooo    XXXX",
"XXXXXXXX    OOOOXXXX....    ooooXXXXXXXX    XXXXXXXXoooo    XXXX",
"XXXXXXXX    OOOOXXXX....    ooooXXXXXXXX    XXXXXXXXoooo    XXXX"
};
