/* XPM */
static char *tnt_side1670510338[] = {
/* columns rows colors chars-per-pixel */
"64 64 10 1 ",
"  c #1B1A3C",
". c #373656",
"X c #912D11",
"o c #B11527",
"O c #DB2F1A",
"+ c #EA4318",
"@ c #BEB2B3",
"# c #CECECE",
"$ c #DDD9D9",
"% c white",
/* pixels */
"++++++++OOOOoooo++++++++OOOOoooo++++++++OOOOoooo++++++++OOOOoooo",
"++++++++OOOOoooo++++++++OOOOoooo++++++++OOOOoooo++++++++OOOOoooo",
"++++++++OOOOoooo++++++++OOOOoooo++++++++OOOOoooo++++++++OOOOoooo",
"++++++++OOOOoooo++++++++OOOOoooo++++++++OOOOoooo++++++++OOOOoooo",
"OOOOOOOOooooXXXXOOOOOOOOooooXXXXOOOOOOOOooooXXXXOOOOOOOOooooXXXX",
"OOOOOOOOooooXXXXOOOOOOOOooooXXXXOOOOOOOOooooXXXXOOOOOOOOooooXXXX",
"OOOOOOOOooooXXXXOOOOOOOOooooXXXXOOOOOOOOooooXXXXOOOOOOOOooooXXXX",
"OOOOOOOOooooXXXXOOOOOOOOooooXXXXOOOOOOOOooooXXXXOOOOOOOOooooXXXX",
"OOOOOOOOooooXXXXOOOOOOOOooooXXXXOOOOOOOOooooXXXXOOOOOOOOooooXXXX",
"OOOOOOOOooooXXXXOOOOOOOOooooXXXXOOOOOOOOooooXXXXOOOOOOOOooooXXXX",
"OOOOOOOOooooXXXXOOOOOOOOooooXXXXOOOOOOOOooooXXXXOOOOOOOOooooXXXX",
"OOOOOOOOooooXXXXOOOOOOOOooooXXXXOOOOOOOOooooXXXXOOOOOOOOooooXXXX",
"OOOOOOOOooooXXXXOOOOOOOOooooXXXXOOOOOOOOooooXXXXOOOOOOOOooooXXXX",
"OOOOOOOOooooXXXXOOOOOOOOooooXXXXOOOOOOOOooooXXXXOOOOOOOOooooXXXX",
"OOOOOOOOooooXXXXOOOOOOOOooooXXXXOOOOOOOOooooXXXXOOOOOOOOooooXXXX",
"OOOOOOOOooooXXXXOOOOOOOOooooXXXXOOOOOOOOooooXXXXOOOOOOOOooooXXXX",
"OOOOOOOOooooXXXXOOOOOOOOooooXXXXOOOOOOOOooooXXXXOOOOOOOOooooXXXX",
"OOOOOOOOooooXXXXOOOOOOOOooooXXXXOOOOOOOOooooXXXXOOOOOOOOooooXXXX",
"OOOOOOOOooooXXXXOOOOOOOOooooXXXXOOOOOOOOooooXXXXOOOOOOOOooooXXXX",
"OOOOOOOOooooXXXXOOOOOOOOooooXXXXOOOOOOOOooooXXXXOOOOOOOOooooXXXX",
"%%%%####$$$$$$$$########$$$$$$$$$$$$########$$$$$$$$$$$$$$$$%%%%",
"%%%%####$$$$$$$$########$$$$$$$$$$$$########$$$$$$$$$$$$$$$$%%%%",
"%%%%####$$$$$$$$########$$$$$$$$$$$$########$$$$$$$$$$$$$$$$%%%%",
"%%%%####$$$$$$$$########$$$$$$$$$$$$########$$$$$$$$$$$$$$$$%%%%",
"%%%%$$$$........    $$$$....########    $$$$........    ####%%%%",
"%%%%$$$$........    $$$$....########    $$$$........    ####%%%%",
"%%%%$$$$........    $$$$....########    $$$$........    ####%%%%",
"%%%%$$$$........    $$$$....########    $$$$........    ####%%%%",
"$$$$@@@@####    ########........####....####$$$$....$$$$$$$$$$$$",
"$$$$@@@@####    ########........####....####$$$$....$$$$$$$$$$$$",
"$$$$@@@@####    ########........####....####$$$$....$$$$$$$$$$$$",
"$$$$@@@@####    ########........####....####$$$$....$$$$$$$$$$$$",
"%%%%####$$$$....$$$$$$$$....$$$$........########    ####@@@@$$$$",
"%%%%####$$$$....$$$$$$$$....$$$$........########    ####@@@@$$$$",
"%%%%####$$$$....$$$$$$$$....$$$$........########    ####@@@@$$$$",
"%%%%####$$$$....$$$$$$$$....$$$$........########    ####@@@@$$$$",
"%%%%$$$$####    ####$$$$....########    ########    $$$$####%%%%",
"%%%%$$$$####    ####$$$$....########    ########    $$$$####%%%%",
"%%%%$$$$####    ####$$$$....########    ########    $$$$####%%%%",
"%%%%$$$$####    ####$$$$....########    ########    $$$$####%%%%",
"@@@@@@@@@@@@@@@@@@@@@@@@@@@@@@@@@@@@@@@@@@@@@@@@@@@@@@@@@@@@@@@@",
"@@@@@@@@@@@@@@@@@@@@@@@@@@@@@@@@@@@@@@@@@@@@@@@@@@@@@@@@@@@@@@@@",
"@@@@@@@@@@@@@@@@@@@@@@@@@@@@@@@@@@@@@@@@@@@@@@@@@@@@@@@@@@@@@@@@",
"@@@@@@@@@@@@@@@@@@@@@@@@@@@@@@@@@@@@@@@@@@@@@@@@@@@@@@@@@@@@@@@@",
"ooooooooXXXXXXXXooooooooXXXXXXXXooooooooXXXXXXXXooooooooXXXXXXXX",
"ooooooooXXXXXXXXooooooooXXXXXXXXooooooooXXXXXXXXooooooooXXXXXXXX",
"ooooooooXXXXXXXXooooooooXXXXXXXXooooooooXXXXXXXXooooooooXXXXXXXX",
"ooooooooXXXXXXXXooooooooXXXXXXXXooooooooXXXXXXXXooooooooXXXXXXXX",
"OOOOOOOOooooXXXXOOOOOOOOooooXXXXOOOOOOOOooooXXXXOOOOOOOOooooXXXX",
"OOOOOOOOooooXXXXOOOOOOOOooooXXXXOOOOOOOOooooXXXXOOOOOOOOooooXXXX",
"OOOOOOOOooooXXXXOOOOOOOOooooXXXXOOOOOOOOooooXXXXOOOOOOOOooooXXXX",
"OOOOOOOOooooXXXXOOOOOOOOooooXXXXOOOOOOOOooooXXXXOOOOOOOOooooXXXX",
"OOOOOOOOooooXXXXOOOOOOOOooooXXXXOOOOOOOOooooXXXXOOOOOOOOooooXXXX",
"OOOOOOOOooooXXXXOOOOOOOOooooXXXXOOOOOOOOooooXXXXOOOOOOOOooooXXXX",
"OOOOOOOOooooXXXXOOOOOOOOooooXXXXOOOOOOOOooooXXXXOOOOOOOOooooXXXX",
"OOOOOOOOooooXXXXOOOOOOOOooooXXXXOOOOOOOOooooXXXXOOOOOOOOooooXXXX",
"OOOOOOOOooooXXXXOOOOOOOOooooXXXXOOOOOOOOooooXXXXOOOOOOOOooooXXXX",
"OOOOOOOOooooXXXXOOOOOOOOooooXXXXOOOOOOOOooooXXXXOOOOOOOOooooXXXX",
"OOOOOOOOooooXXXXOOOOOOOOooooXXXXOOOOOOOOooooXXXXOOOOOOOOooooXXXX",
"OOOOOOOOooooXXXXOOOOOOOOooooXXXXOOOOOOOOooooXXXXOOOOOOOOooooXXXX",
"ooooooooooooXXXXooooooooooooXXXXooooooooooooXXXXooooooooooooXXXX",
"ooooooooooooXXXXooooooooooooXXXXooooooooooooXXXXooooooooooooXXXX",
"ooooooooooooXXXXooooooooooooXXXXooooooooooooXXXXooooooooooooXXXX",
"ooooooooooooXXXXooooooooooooXXXXooooooooooooXXXXooooooooooooXXXX"
};
